<?xml version="1.0" standalone="no"?>
<!DOCTYPE svg PUBLIC "-//W3C//DTD SVG 20010904//EN"
 "http://www.w3.org/TR/2001/REC-SVG-20010904/DTD/svg10.dtd">
<svg version="1.0" xmlns="http://www.w3.org/2000/svg"
 width="500.000000pt" height="500.000000pt" viewBox="0 0 500.000000 500.000000"
 preserveAspectRatio="xMidYMid meet">
<metadata>
Created by potrace 1.16, written by Peter Selinger 2001-2019
</metadata>
<g transform="translate(0.000000,500.000000) scale(0.100000,-0.100000)"
fill="#000000" stroke="none">
<path d="M2520 3859 c-303 -15 -376 -33 -472 -118 -67 -60 -138 -157 -138
-190 0 -32 33 -66 72 -76 14 -4 61 0 103 9 43 9 78 16 80 16 2 0 -10 -41 -26
-90 -16 -50 -29 -100 -29 -112 0 -12 -7 -30 -16 -40 -15 -16 -15 -27 -5 -95
16 -104 19 -111 43 -119 20 -6 21 -11 15 -106 -3 -55 -3 -98 -1 -95 11 11 24
133 27 269 4 113 8 152 18 159 23 14 261 10 345 -6 98 -19 109 -12 15 9 -44
10 -117 16 -196 16 l-127 0 4 45 c1 24 -1 40 -5 36 -5 -5 -9 -25 -9 -45 0 -30
-4 -37 -24 -41 -13 -3 -35 -7 -49 -10 -30 -6 -31 -2 -6 84 11 36 24 84 30 107
10 39 13 41 66 53 56 13 145 65 153 91 3 8 -9 3 -26 -12 -58 -49 -219 -65
-280 -28 -18 11 -35 27 -38 35 -4 8 -10 15 -15 15 -17 0 -9 -22 20 -51 25 -25
37 -29 82 -29 64 0 57 -11 -19 -27 -86 -18 -136 -16 -155 5 -25 27 -21 47 20
110 55 82 116 140 181 170 56 25 65 26 346 35 328 10 392 4 437 -39 35 -34 45
-74 26 -111 -15 -28 -139 -153 -152 -153 -4 0 16 24 45 53 56 56 77 87 61 87
-6 0 -17 -12 -25 -27 -8 -16 -35 -45 -60 -66 -26 -21 -44 -42 -42 -46 6 -9
-37 -10 -44 0 -10 14 -149 57 -223 70 -79 13 -105 9 -115 -20 -3 -10 0 -11 19
-1 33 18 141 7 229 -24 40 -14 75 -28 77 -30 2 -2 -2 -46 -8 -98 -6 -53 -9
-104 -7 -114 2 -11 10 27 17 84 12 88 17 102 33 102 38 0 106 42 168 105 64
65 65 66 65 121 0 51 -3 58 -37 89 -63 58 -91 61 -448 44z"/>
<path d="M3036 2858 c-3 -13 -6 -51 -6 -85 0 -35 -5 -82 -11 -106 -10 -36 -9
-47 5 -72 16 -28 16 -20 -1 23 -11 30 34 -16 94 -96 49 -65 102 -114 159 -148
17 -10 17 -12 -3 -45 -17 -27 -19 -38 -11 -53 8 -14 6 -31 -7 -68 l-17 -49 28
-40 c15 -22 31 -59 35 -82 l6 -42 2 40 c0 22 -6 51 -14 65 -39 68 -39 68 -20
110 15 33 16 44 6 69 -11 24 -10 33 4 55 l17 26 -73 73 c-41 40 -104 105 -141
146 -59 65 -66 75 -58 99 7 23 20 202 14 202 -1 0 -4 -10 -8 -22z"/>
<path d="M2670 2822 c0 -7 38 -56 85 -110 47 -53 85 -102 85 -108 0 -27 -27
-35 -66 -20 -22 8 -57 17 -79 20 l-40 5 40 -19 c22 -11 59 -22 83 -26 23 -3
42 -11 43 -18 0 -6 5 0 12 14 9 22 12 14 17 -60 3 -47 10 -92 15 -100 56 -93
272 -265 306 -245 5 4 23 34 40 68 22 46 25 56 9 37 -11 -14 -27 -40 -35 -57
-8 -18 -18 -33 -23 -33 -34 0 -237 171 -276 233 -8 12 -17 55 -21 96 -6 71 -6
74 11 60 16 -12 17 -12 9 1 -12 22 -64 89 -104 136 -55 64 -91 109 -102 125
-6 10 -9 10 -9 1z"/>
<path d="M2097 2779 c-3 -14 -65 -92 -137 -175 -72 -82 -140 -169 -153 -194
-27 -56 -28 -114 -3 -235 10 -49 21 -124 25 -165 7 -75 7 -75 15 -30 5 32 1
80 -16 170 -42 232 -32 264 138 441 114 118 148 166 142 197 -3 12 -6 10 -11
-9z"/>
<path d="M1662 1551 l-51 -81 32 -9 c22 -5 35 -5 42 3 14 15 55 8 55 -10 0
-13 37 -34 61 -34 11 0 2 180 -10 192 -3 3 -22 9 -42 13 -35 7 -35 6 -87 -74z"/>
<path d="M3158 1613 c-22 -5 -22 -20 -3 -98 8 -33 14 -66 15 -73 0 -22 -26 10
-43 51 -16 38 -44 52 -79 41 -52 -15 -79 -64 -36 -64 20 0 21 -1 4 -13 -27
-20 -18 -61 15 -65 14 -2 31 4 38 12 9 11 18 13 30 7 15 -9 116 10 129 24 9 8
-32 178 -43 181 -5 1 -18 0 -27 -3z"/>
<path d="M3267 1578 c-34 -12 -46 -52 -23 -77 14 -15 14 -20 4 -24 -10 -4 -8
-10 6 -21 24 -20 37 -20 81 -2 29 12 35 20 35 45 0 23 -6 32 -27 39 -18 7 -22
11 -10 11 23 1 22 18 -2 31 -23 12 -27 12 -64 -2z"/>
<path d="M2147 1493 c-12 -122 -10 -133 18 -133 14 0 25 5 25 11 0 5 10 3 22
-5 29 -20 34 -20 58 4 24 24 27 91 5 110 -8 7 -26 10 -40 8 -23 -5 -25 -2 -25
27 0 21 -6 35 -16 39 -35 14 -41 6 -47 -61z"/>
<path d="M2719 1498 c-18 -63 -25 -65 -44 -14 -17 45 -19 46 -61 46 l-44 0 0
-49 c0 -26 3 -68 6 -93 6 -42 8 -44 35 -40 26 4 29 8 29 41 l1 36 20 -37 c14
-28 26 -38 43 -38 19 0 26 8 37 48 l14 47 5 -40 c5 -37 8 -40 39 -43 33 -3 34
-3 27 29 -3 17 -6 58 -6 90 l0 59 -45 0 c-44 0 -44 -1 -56 -42z"/>
<path d="M2000 1501 c-21 -17 -23 -22 -10 -31 13 -8 12 -12 -7 -25 -13 -9 -23
-20 -23 -25 0 -19 33 -40 63 -40 18 1 49 -2 70 -6 30 -5 37 -3 37 10 0 9 -5
16 -11 16 -8 0 -10 12 -6 35 11 66 -63 109 -113 66z"/>
<path d="M2862 1494 c-16 -11 -22 -25 -22 -54 0 -61 58 -89 125 -58 26 12 32
23 16 32 -4 3 -6 17 -3 31 10 54 -64 86 -116 49z"/>
<path d="M3770 1379 c-14 -6 -59 -19 -100 -31 -41 -11 -79 -23 -83 -28 -9 -8
22 -140 33 -140 5 0 26 20 47 44 42 48 136 166 131 165 -2 0 -14 -5 -28 -10z"/>
<path d="M1219 1363 c25 -45 161 -194 165 -182 15 41 34 134 30 138 -5 5 -183
60 -197 61 -4 0 -3 -8 2 -17z"/>
</g>
</svg>
